<svg id="_03854386-909d-4c5e-a40c-cbc0e2c8086d" data-name="03854386-909d-4c5e-a40c-cbc0e2c8086d" xmlns="http://www.w3.org/2000/svg" xmlns:xlink="http://www.w3.org/1999/xlink" width="1084" height="830.5" viewBox="0 0 1084 830.5"><defs><style>.cls-1{opacity:0.5;fill:url(#linear-gradient);}.cls-2{fill:url(#linear-gradient-2);}.cls-3{fill:#0d0c0f;}.cls-4{fill:#7c501a;}.cls-5{opacity:0.1;}.cls-11,.cls-5{isolation:isolate;}.cls-6{fill:#ff8d00;}.cls-7{fill:url(#linear-gradient-3);}.cls-8{fill:#2e8f30;}.cls-9{fill:#6c63ff;}.cls-10{fill:#d6d6e3;}.cls-11{opacity:0.05;}.cls-12{fill:#8ed16f;}.cls-13{opacity:0.76;fill:url(#linear-gradient-4);}</style><linearGradient id="linear-gradient" x1="158.36" y1="923.45" x2="165.48" y2="923.45" gradientTransform="matrix(108.97, 0, 0, -114.13, -17059.58, 105816)" gradientUnits="userSpaceOnUse"><stop offset="0" stop-color="#e13335"/><stop offset="1" stop-color="#ef7a23"/></linearGradient><linearGradient id="linear-gradient-2" x1="637.48" y1="-32.75" x2="637.48" y2="797.28" gradientTransform="matrix(1, 0, 0, -1, -58, 797.25)" gradientUnits="userSpaceOnUse"><stop offset="0" stop-color="gray" stop-opacity="0.25"/><stop offset="0.54" stop-color="gray" stop-opacity="0.12"/><stop offset="1" stop-color="gray" stop-opacity="0.1"/></linearGradient><linearGradient id="linear-gradient-3" x1="981.74" y1="377.75" x2="981.74" y2="515.25" xlink:href="#linear-gradient-2"/><linearGradient id="linear-gradient-4" x1="166.76" y1="921.97" x2="167.21" y2="921.97" gradientTransform="matrix(77.37, 0, 0, -81.04, -12066.84, 75106.88)" xlink:href="#linear-gradient"/></defs><title>payment</title><path class="cls-1" d="M966.47,376.4a316.8,316.8,0,0,0-27.06-80.69,279.77,279.77,0,0,0-49.17-70.24,264.65,264.65,0,0,0-68.15-50.2A234.08,234.08,0,0,0,742,151.58a220,220,0,0,0-41.62.08,187.88,187.88,0,0,0-107.53,49A182.12,182.12,0,0,0,568.23,230a212.55,212.55,0,0,1-11.72,18,44.92,44.92,0,0,1-20.39,11.81,113,113,0,0,0-46.71,33.47c-20.29,25.05-27.51,58.86-25.63,91.16a317.8,317.8,0,0,0,23.76,93.46c-.71-22.59,10.28-44.16,24.55-61.66S544,384.12,559.9,368a83.57,83.57,0,0,0,21.15-30.49,63.85,63.85,0,0,0-.76-39.24,167,167,0,0,0-17.5-35.67c-34.14,35.76-55,82.38-68,130.12,1.62-5.78,1.78-12.14,3.06-18,1.19-6.11,2.72-12.14,4.41-18.08a243,243,0,0,1,12.91-34.9,277,277,0,0,1,40.43-61.91c5.95-7.05,12.32-13.85,18.86-20.3a168.77,168.77,0,0,1,94.79-39.58A165.23,165.23,0,0,1,785.06,236c65.57,50,87.31,136.07,74.4,214.62A272.5,272.5,0,0,1,843.75,508a293.33,293.33,0,0,1-26.58,52.83,273.91,273.91,0,0,1-80.53,81.45,269.39,269.39,0,0,1-105.83,40.52,248.64,248.64,0,0,1-111-6.29,261.34,261.34,0,0,1-167-142.18,301.54,301.54,0,0,1-25.31-172.92,295.28,295.28,0,0,1,14.58-58.86A368.84,368.84,0,0,1,404,193.55a387.26,387.26,0,0,1,98.05-85C566.79,69.43,639.74,54.41,714.15,47c26.24-2.64,52.91-7.73,79.24-2.47A607.15,607.15,0,0,0,633.12,17.3,442.38,442.38,0,0,0,471.57,44.73a429,429,0,0,0-135.63,82.9,413.65,413.65,0,0,0-54.78,60.05,417.62,417.62,0,0,0-43.23,70.14,411,411,0,0,0-28.8,78.74,397.58,397.58,0,0,0-11.8,84.35,411.93,411.93,0,0,0,29.81,167.64A386.67,386.67,0,0,0,327,731.4a399.13,399.13,0,0,0,153.24,84.26,390,390,0,0,0,175.39,7.9,396.33,396.33,0,0,0,159.52-68.71A388.38,388.38,0,0,0,972.76,461.07,348.59,348.59,0,0,0,966.47,376.4Z"/><path class="cls-2" d="M1014.55,416.25c-22-4.6-63.65-13.23-110.79-22.79-69.79-14.15-88,39.41-88,39.41,0,27.28-91,140.44-91,140.44l-27.14-60.8a28.63,28.63,0,0,0,12.48-.84c15.54-4.64,23.22-22.17,25.71-38.18a125.44,125.44,0,0,0-9.77-71c-4.63-10.14-10.63-19.68-14.35-30.18-15.69-44.06,11.49-95.06-5-138.95-6.79-18.11-20.33-32.8-29.69-49.72-21-38-20.1-85.65-43-122.61C612.57,26.38,570.24,5.84,529.69,10.42c-23.91,2.7-41,11.24-63.28,1C447.6,2.8,425-6.84,405.65,6.74c-16.52,11.58-19.33,34.39-28.35,52.42-15.84,31.67-53.42,52.34-57.84,87.47-1.09,8.66,0,17.64-2.53,26-7.22,23.63-38.66,30.61-51.54,51.7-12.61,20.64.13,51.85,23.59,57.8,10,2.54,20.76,1,30.75,3.69,9.37,2.5,18.46,11.26,16.84,20.41L315.79,310,256,316.65l-9.25.58v.45l-.5.06.49.4v3.28c-16.83,6.59-44.1,24.18-54.4,70.32a69.89,69.89,0,0,1-13.93,28.75c-15.33,18.9-40.77,55.81-39.35,91.24,2,50.52,2,70.73,68.78,56.58,16.87-3.57,35.22-10.89,53.23-19.83,1.05,21.06,3.78,41.71,9.48,57.21C288.76,655.2,250.32,830,250.32,830H621.55s-31.36-103.06-61.7-155.6c-21.49-37.22-13.55-59.73-7.09-69.7a93.47,93.47,0,0,0,12.39-27.62c1.1-4.31,2.17-9.2,3.09-14.62,6.83,5.59,14.12,10.61,22.37,13.61,7.64,2.77,16.33,3.53,24.06,1.39,15.82,19.34,33.49,40.55,52.4,62.59,72.83,84.87,93.06,32.33,93.06,32.33s73.84-140.44,84-182.88,32.37-40.42,32.37-40.42c60.88,15.39,114.84-6.95,139.91-20.39a6.67,6.67,0,0,0-1.86-12.44ZM263.43,441.64a96.27,96.27,0,0,0,13-19h.19a143.82,143.82,0,0,1-7.11,20.68c-5.67,1.09-9.09,1.66-9.09,1.66Z"/><path class="cls-3" d="M403,15.73c-16.33,11.46-19.11,34-28,51.88-15.66,31.34-52.81,51.81-57.18,86.57-1.08,8.57,0,17.46-2.5,25.72-7.13,23.39-38.22,30.3-51,51.17-12.47,20.42.13,51.31,23.32,57.2,9.91,2.52,20.52,1,30.4,3.65s19.45,12.33,16.18,22c-2.43,7.2-11,11.3-12.56,18.74-1.36,6.4,3,12.5,7.22,17.48,5.36,6.3,11.08,12.5,18.25,16.63,19.72,11.36,44.32,4.54,67.06,3.79a121.17,121.17,0,0,1,76.47,24.31c6.29,4.77,12.21,10.28,16.11,17.15,12.71,22.38.69,50.47,3.39,76.06,3.06,29.08,24.78,52.42,46.71,71.75,8.76,7.72,18,15.33,29,19.32s24.15,3.77,33.4-3.35c9.72-7.48,13.1-20.73,13.16-33s-2.52-24.48-1.9-36.73c.3-6,2.49-13.13,8.34-14.31,2.93-.59,5.9.6,8.57,1.94C666.1,503.08,684,521.45,704,515.49c15.37-4.59,23-21.94,25.42-37.79a124.29,124.29,0,0,0-9.66-70.24c-4.58-10-10.51-19.47-14.19-29.87C690.11,333.9,717,283.41,700.72,240c-6.71-17.92-20.1-32.46-29.35-49.21C650.57,153.13,651.5,106,628.85,69.44c-21.23-34.3-63.09-54.62-103.17-50.09-23.64,2.67-40.53,11.13-62.56,1C444.52,11.84,422.2,2.25,403,15.73Z"/><path class="cls-4" d="M561.5,332.5s65-20,91,96l66,148s90-112,90-139c0,0,18-53,87-39,46.61,9.46,87.74,18,109.53,22.55a6.6,6.6,0,0,1,1.79,12.27C982,446.62,928.69,468.73,868.5,453.5c0,0-22-2-32,40s-83,181-83,181-20,52-92-32-126-156-126-156Z"/><path class="cls-4" d="M561.5,346.5l-8.62,28.39L544.36,403,527.5,458.5l-80,15-26.07-16.63L389.5,436.5,362,417.5l-40.47-28-33-69s9.1-1.61,37.47-6.77l39.53-7.23c27.3-5,37.62-25.32,40.77-46,3.77-24.76-2.77-50-2.77-50h101s11.3,17,9.53,46.36a118,118,0,0,1-4.53,25.64c-8.88,30.74,11.17,41,24.77,44.33a56.83,56.83,0,0,0,11.23,1.67Z"/><path class="cls-5" d="M514,256.86a95.07,95.07,0,0,1-107.76,3.66c3.77-24.76-2.77-50-2.77-50h101S515.8,227.45,514,256.86Z"/><circle class="cls-4" cx="457.5" cy="177.5" r="95"/><path class="cls-5" d="M561.5,346.5l-8.62,28.39L544.36,403,527.5,458.5l-80,15-26.07-16.63L389.5,436.5,362,417.5l-40.47-28-33-69s9.1-1.61,37.47-6.77c20,55.65,45.3,76.37,68.13,83.09,13.65,4,26.41,3,36.58,1.5a94.43,94.43,0,0,1,39.23,2c30.7,8.54,46.86-7.81,55.35-28.56,6.28-15.35,8.36-33.12,9-45a56.83,56.83,0,0,0,11.23,1.67Z"/><path class="cls-6" d="M249.5,830.5s38-173,20-222c-5.15-14-7.85-32.32-9.06-51.28-3-47.27,3.06-98.72,3.06-98.72.86-1.67,1.67-3.33,2.45-5q3-6.4,5.28-12.52c21.43-57.66-5.23-96.05-18.75-110.73a67.41,67.41,0,0,0-7-6.73L322,315c20.11,57.71,45.9,79,69.1,85.82,13.65,4,26.41,3,36.58,1.5a94.43,94.43,0,0,1,39.23,2c30.7,8.54,46.86-7.81,55.35-28.56,10.54-25.76,9.24-58.29,9.24-58.29l44,13s-3.88,24.1-7.39,55.77c-.83,7.43-1.64,15.27-2.37,23.32-3,33.58-4.78,70.71-1.24,95.91a193.91,193.91,0,0,1-3.77,74.68,92.52,92.52,0,0,1-12.24,27.34c-6.39,9.86-14.24,32.15,7,69,30,52,61,154,61,154Z"/><path class="cls-6" d="M575,331s36.33,57-11.34,106S535,417,535,417l12-80Z"/><path class="cls-5" d="M252.48,330.25a49.18,49.18,0,0,1,8.31-1.86c13,6.2,20.2,23.41,24.11,41.38A93.08,93.08,0,0,1,271.23,441C292.66,383.32,266,344.93,252.48,330.25Z"/><path class="cls-5" d="M565.74,409.59c-21.35,1.41-49.24-1.09-49.24-1.09,3.76,17.2-4,30.64-12,39.4a27.27,27.27,0,0,1-24.66,8.63c-46.14-8-116.3,34-116.3,34s-50.18,40.53-103.1,66.72c-3-47.27,3.06-98.72,3.06-98.72.86-1.67,1.67-3.33,2.45-5,21.38-4,99.06-19.8,114.55-43,2.3-3.45,6-6.68,10.6-9.68,13.23-8.56,34.4-15.27,54.53-20.17a217.7,217.7,0,0,1,76.63-4.86,211,211,0,0,1,32.56,6.35c4.66,1.29,9.16,2.68,13.29,4.13,11.32,4,19.9,8.47,21.39,13.23C591.51,405.93,580.1,408.65,565.74,409.59Z"/><path class="cls-5" d="M544.36,403c-15.39-.26-28.86-1.47-28.86-1.47,3.76,17.2-4,30.64-12,39.4a27.27,27.27,0,0,1-24.66,8.63c-17.39-3-38.2,1.09-57.37,7.34l-32-20.37L362,417.5c8-4.29,14.19-9,17.53-14,8.88-13.32,38-23.23,65.13-29.85a216.09,216.09,0,0,1,108.25,1.24l.94.25C571.21,380,586.47,386,588.5,392.5,591.42,401.85,566,403.35,544.36,403Z"/><path class="cls-4" d="M259.79,323.37s-52.31,5.32-67.56,73.13a70.21,70.21,0,0,1-13.9,28.8C163.17,444,138.1,480.5,139.5,515.51c2,50,2,70,68,56s155-86,155-86,70.16-41.93,116.3-34a27.29,27.29,0,0,0,24.66-8.63c8-8.76,15.81-22.2,12-39.4,0,0,78,7,73-9-2-6.5-17.29-12.51-34.68-17.35a216.27,216.27,0,0,0-109.19-1.5c-27.18,6.63-56.25,16.54-65.13,29.85-18,27-120,44-120,44l3-3.37a93.44,93.44,0,0,0,21.44-81.36C280,346.78,272.83,329.57,259.79,323.37Z"/><path class="cls-6" d="M246,323s-3,121,42,103,10-103,10-103l-20-2Z"/><path class="cls-5" d="M380.67,179.13A441.82,441.82,0,0,0,468,160.36c7.3-2.36,15.23-5.5,18.64-12.36.88-1.77,1.54-3.87,3.27-4.84,1.47-.83,3.29-.57,4.94-.19,9.75,2.31,18.12,8.42,27.41,12.17s21.12,4.63,28.26-2.41c8.43-8.32,5.64-22.62.09-33.07C530,80.78,481.72,63,437.8,66.25c-6.17.45-12.44,1.28-18,4C408,75.9,401.6,88.47,395.23,99.86,382.84,122,317.33,186.14,380.67,179.13Z"/><path class="cls-3" d="M380.67,176.13A441.82,441.82,0,0,0,468,157.36c7.3-2.36,15.23-5.5,18.64-12.36.88-1.77,1.54-3.87,3.27-4.84,1.47-.83,3.29-.57,4.94-.19,9.75,2.31,18.12,8.42,27.41,12.17s21.12,4.63,28.26-2.41c8.43-8.32,5.64-22.62.09-33.07C530,77.78,481.72,60,437.8,63.25c-6.17.45-12.44,1.28-18,4C408,72.9,401.6,85.47,395.23,96.86,382.84,119,317.33,183.14,380.67,176.13Z"/><path class="cls-7" d="M1025.24,282h-203a9.25,9.25,0,0,0-9.25,9.25h0v119a9.25,9.25,0,0,0,9.25,9.25h203a9.25,9.25,0,0,0,9.25-9.25h0v-119a9.25,9.25,0,0,0-9.25-9.25Z"/><rect class="cls-8" x="815.56" y="283.62" width="216.33" height="134.27" rx="11.91"/><rect class="cls-9" x="815.56" y="307.12" width="216.33" height="24.62"/><rect class="cls-6" x="815.56" y="307.12" width="216.33" height="24.62"/><rect class="cls-10" x="836.07" y="350.01" width="175.3" height="11.94"/><path class="cls-11" d="M253,450s-19,10.09-22.15,22.42S224,487,224,487"/><path class="cls-11" d="M719,576s-9,31,0,35"/><path class="cls-11" d="M270,611s78,17,136-18h25s75,38,111,27"/><rect class="cls-12" x="831" y="546.09" width="37.81" height="73.68" transform="translate(-24.34 1128.68) rotate(-66.42)"/><ellipse class="cls-12" cx="849.7" cy="583.38" rx="7.76" ry="15.51" transform="translate(-24.87 1128.76) rotate(-66.42)"/><ellipse class="cls-5" cx="849.7" cy="583.38" rx="7.76" ry="15.51" transform="translate(-24.87 1128.76) rotate(-66.42)"/><rect class="cls-12" x="930.03" y="422.63" width="37.81" height="73.68" transform="translate(148.22 1145.37) rotate(-66.42)"/><ellipse class="cls-12" cx="948.73" cy="459.92" rx="7.76" ry="15.51" transform="translate(147.69 1145.45) rotate(-66.42)"/><ellipse class="cls-5" cx="948.73" cy="459.92" rx="7.76" ry="15.51" transform="translate(147.69 1145.45) rotate(-66.42)"/><rect class="cls-12" x="1012.31" y="555.78" width="37.81" height="73.68" transform="translate(-94.73 209.42) rotate(-11.09)"/><ellipse class="cls-12" cx="1030.74" cy="592.71" rx="7.76" ry="15.51" transform="translate(-94.76 209.33) rotate(-11.09)"/><ellipse class="cls-5" cx="1030.74" cy="592.71" rx="7.76" ry="15.51" transform="translate(-94.76 209.33) rotate(-11.09)"/><rect class="cls-12" x="916.49" y="715.72" width="37.81" height="73.68" transform="translate(-128.52 1308.8) rotate(-66.42)"/><ellipse class="cls-12" cx="935.21" cy="753.01" rx="7.76" ry="15.51" transform="translate(-129.04 1308.9) rotate(-66.42)"/><ellipse class="cls-5" cx="935.21" cy="753.01" rx="7.76" ry="15.51" transform="translate(-129.04 1308.9) rotate(-66.42)"/><rect class="cls-12" x="749.64" y="682.97" width="37.81" height="73.68" transform="translate(-198.61 1136.24) rotate(-66.42)"/><ellipse class="cls-12" cx="768.34" cy="720.26" rx="7.76" ry="15.51" transform="translate(-199.14 1136.33) rotate(-66.42)"/><ellipse class="cls-5" cx="768.34" cy="720.26" rx="7.76" ry="15.51" transform="translate(-199.14 1136.33) rotate(-66.42)"/><path class="cls-13" d="M870.22,390.69a14.13,14.13,0,0,0-1.21-3.58,12.72,12.72,0,0,0-2.18-3.11,11.42,11.42,0,0,0-3-2.23,10,10,0,0,0-3.55-1,9.53,9.53,0,0,0-1.85,0,10.54,10.54,0,0,0-1.77.39,9.39,9.39,0,0,0-1.61.74,8.32,8.32,0,0,0-1.39,1,7.45,7.45,0,0,0-1.09,1.29,8.52,8.52,0,0,1-.53.8,2,2,0,0,1-.9.53A5,5,0,0,0,849,387a5.92,5.92,0,0,0-1.14,4A14.21,14.21,0,0,0,849,395.2a4.3,4.3,0,0,1,1.1-2.74c.63-.78,1.41-1.42,2.11-2.14a3.8,3.8,0,0,0,1-1.36,2.77,2.77,0,0,0,0-1.73,7.29,7.29,0,0,0-.77-1.59,13.14,13.14,0,0,0-3,5.78c.07-.26.07-.55.13-.81s.12-.53.2-.79a10.66,10.66,0,0,1,.57-1.55,12.15,12.15,0,0,1,1.79-2.75q.4-.47.84-.9a7.55,7.55,0,0,1,4.21-1.76,7.37,7.37,0,0,1,5.14,1.61c2.91,2.21,3.87,6,3.3,9.52a11.9,11.9,0,0,1-.7,2.55,12.22,12.22,0,0,1-1.18,2.34,12,12,0,0,1-8.26,5.41,11.1,11.1,0,0,1-4.93-.28A11.61,11.61,0,0,1,843,397.7a13.25,13.25,0,0,1-1.12-7.67,12.55,12.55,0,0,1,.65-2.62,16.18,16.18,0,0,1,2.74-4.83,17.24,17.24,0,0,1,4.35-3.77,22.14,22.14,0,0,1,9.41-2.74,11.82,11.82,0,0,1,3.51-.1,26.75,26.75,0,0,0-7.11-1.21,19.44,19.44,0,0,0-7.16,1.22,19.2,19.2,0,0,0-10.37,9.45,18.11,18.11,0,0,0-1.28,3.5,17.46,17.46,0,0,0-.52,3.74,18.4,18.4,0,0,0,1.32,7.44,17.25,17.25,0,0,0,4.43,6.34,17.69,17.69,0,0,0,6.81,3.73,17.05,17.05,0,0,0,7.78.36,17.51,17.51,0,0,0,7.07-3.05,17.2,17.2,0,0,0,7-13A15.81,15.81,0,0,0,870.22,390.69Z"/></svg>