<svg xmlns="http://www.w3.org/2000/svg" xmlns:xlink="http://www.w3.org/1999/xlink" width="101.132" height="26.213" viewBox="0 0 101.132 26.213"><defs><linearGradient id="a" y1="0.5" x2="1" y2="0.5" gradientUnits="objectBoundingBox"><stop offset="0" stop-color="#e13335"/><stop offset="1" stop-color="#ef7a23"/></linearGradient></defs><path d="M33.484,50.657a6.593,6.593,0,0,0-.571-1.712,5.665,5.665,0,0,0-1.046-1.474,5.152,5.152,0,0,0-1.426-1.062,4.987,4.987,0,0,0-1.7-.507,5.327,5.327,0,0,0-.872,0,3.737,3.737,0,0,0-.856.19,4.147,4.147,0,0,0-.761.349,5.26,5.26,0,0,0-.666.507,3.757,3.757,0,0,0-.507.618c-.1.127-.159.254-.254.38a1.032,1.032,0,0,1-.428.238,2.461,2.461,0,0,0-.983.713,2.827,2.827,0,0,0-.555,1.918,7.147,7.147,0,0,0,.507,1.981,2.013,2.013,0,0,1,.523-1.3,12.082,12.082,0,0,1,1-1.014,1.87,1.87,0,0,0,.46-.65,1.459,1.459,0,0,0-.016-.824,4.266,4.266,0,0,0-.38-.761,6.419,6.419,0,0,0-1.426,2.742l.063-.38.1-.38a4.028,4.028,0,0,1,.269-.729,5.52,5.52,0,0,1,.856-1.315c.127-.143.254-.285.4-.428a3.587,3.587,0,0,1,2-.824,3.42,3.42,0,0,1,2.441.761,4.663,4.663,0,0,1,1.585,4.533,7.988,7.988,0,0,1-.333,1.2,6.658,6.658,0,0,1-.571,1.109,5.655,5.655,0,0,1-3.93,2.583,5.507,5.507,0,0,1-5.864-3.138A6.292,6.292,0,0,1,20,50.34a6.86,6.86,0,0,1,.3-1.252,8.143,8.143,0,0,1,1.315-2.3A8.307,8.307,0,0,1,23.674,45a10.629,10.629,0,0,1,4.485-1.3,5.336,5.336,0,0,1,1.664-.048,12.783,12.783,0,0,0-3.376-.586,9.239,9.239,0,0,0-3.407.586,8.939,8.939,0,0,0-4.025,3.011,9.384,9.384,0,0,0-.919,1.49,8.312,8.312,0,0,0-.6,1.664,9.4,9.4,0,0,0-.254,1.775,8.73,8.73,0,0,0,.634,3.534,8.172,8.172,0,0,0,2.108,3.027,8.517,8.517,0,0,0,3.233,1.775,8.154,8.154,0,0,0,3.708.158,8.369,8.369,0,0,0,3.36-1.442,8.166,8.166,0,0,0,3.328-6.212A7.445,7.445,0,0,0,33.484,50.657Z" transform="translate(-17.234 -41.259)" fill="url(#a)"/><g transform="translate(1.004 21.965)"><path d="M18.406,47.411a1.19,1.19,0,0,1-.586-.143,1.1,1.1,0,0,1-.38-.428,1.471,1.471,0,0,1-.143-.666,1.918,1.918,0,0,1,.127-.761,1.692,1.692,0,0,1,.333-.571,1.331,1.331,0,0,1,.491-.349,1.264,1.264,0,0,1,.586-.127.663.663,0,0,1,.285.047.174.174,0,0,1,.1.159l-.016.063-.016.063-.111-.016-.127-.016a1.093,1.093,0,0,0-.618.19,1.243,1.243,0,0,0-.428.507,1.721,1.721,0,0,0-.174.792,1.279,1.279,0,0,0,.206.761.742.742,0,0,0,.57.254.772.772,0,0,0,.349-.1,1.161,1.161,0,0,0,.333-.254,1.927,1.927,0,0,0,.269-.4,1.816,1.816,0,0,0,.143-.523.628.628,0,0,1-.349-.269,1.007,1.007,0,0,1-.079-.365l.048-.222.127-.158.19-.063a.343.343,0,0,1,.3.19,1.023,1.023,0,0,1,.111.491,2.3,2.3,0,0,1-.127.745,1.568,1.568,0,0,1-.317.6,1.467,1.467,0,0,1-.475.412A1.363,1.363,0,0,1,18.406,47.411Z" transform="translate(-17.297 -43.877)"/><path d="M17.874,46.936l-.174-.048-.063-.174.032-.269.063-.38.1-.444.1-.444.1-.412-.174-.174.206-.127.19-.047.159.047.032.159-.032.238-.1.269.032.016a1.842,1.842,0,0,1,.46-.586.885.885,0,0,1,.523-.158.482.482,0,0,1,.4.143.753.753,0,0,1,.1.38v.1l-.016.111.032.016a1.861,1.861,0,0,1,.475-.586.969.969,0,0,1,.539-.158.609.609,0,0,1,.412.127.656.656,0,0,1,.127.428,1.8,1.8,0,0,1-.048.4l-.1.428-.111.46a2.005,2.005,0,0,0-.048.444l.016.1.032.079a.334.334,0,0,1-.206.079.2.2,0,0,1-.174-.063l-.063-.19.048-.38.1-.444.1-.46.032-.365a.453.453,0,0,0-.063-.269.247.247,0,0,0-.222-.1.627.627,0,0,0-.365.143,1.334,1.334,0,0,0-.365.412,2.546,2.546,0,0,0-.269.634,3.341,3.341,0,0,0-.111.824l.016.1.032.079a.334.334,0,0,1-.206.079.2.2,0,0,1-.174-.063l-.063-.19.048-.38.1-.444.1-.46.032-.365a.454.454,0,0,0-.063-.269.247.247,0,0,0-.222-.1.627.627,0,0,0-.365.143,1.334,1.334,0,0,0-.365.412,2.548,2.548,0,0,0-.269.634,2.729,2.729,0,0,0-.111.824l.016.1.032.079A.334.334,0,0,1,17.874,46.936Z" transform="translate(-12.264 -43.402)"/><path d="M18.813,46.936a.837.837,0,0,1-.65-.254,1.057,1.057,0,0,1-.222-.729,1.944,1.944,0,0,1,.1-.618,1.455,1.455,0,0,1,.317-.491,1.308,1.308,0,0,1,.444-.333,1.383,1.383,0,0,1,.586-.111.64.64,0,0,1,.475.158.525.525,0,0,1,.174.412.668.668,0,0,1-.206.491,1.268,1.268,0,0,1-.618.317,3.451,3.451,0,0,1-.967.111l.048-.206a1.813,1.813,0,0,0,1-.19.588.588,0,0,0,.365-.555.439.439,0,0,0-.079-.254.4.4,0,0,0-.254-.079.737.737,0,0,0-.365.1,1.142,1.142,0,0,0-.317.3,2.319,2.319,0,0,0-.206.444,1.934,1.934,0,0,0-.063.539.855.855,0,0,0,.127.523.394.394,0,0,0,.349.206.661.661,0,0,0,.46-.174.718.718,0,0,0,.19-.46l.206.048a.2.2,0,0,1,.079.174.464.464,0,0,1-.127.3.831.831,0,0,1-.349.254A1.52,1.52,0,0,1,18.813,46.936Z" transform="translate(-7.735 -43.402)"/><path d="M18.362,46.936l-.174-.063a.42.42,0,0,1-.048-.222l.032-.3.079-.475.127-.555.127-.555-.158-.174.19-.127.158-.047.158.063.032.143-.048.285-.127.349.048.032a2.286,2.286,0,0,1,.269-.523,1.211,1.211,0,0,1,.285-.285.526.526,0,0,1,.254-.079l.174.048.063.143a.207.207,0,0,1-.111.19.382.382,0,0,1-.238.063.467.467,0,0,0-.333.158,1.459,1.459,0,0,0-.3.412,2.454,2.454,0,0,0-.206.6,2.39,2.39,0,0,0-.079.666l.032.174A.334.334,0,0,1,18.362,46.936Z" transform="translate(-4.78 -43.402)"/><path d="M19.179,46.936a.849.849,0,0,1-.666-.254,1.02,1.02,0,0,1-.238-.713,1.587,1.587,0,0,1,.111-.618,1.653,1.653,0,0,1,.3-.507,1.612,1.612,0,0,1,.475-.333,1.334,1.334,0,0,1,.555-.111.793.793,0,0,1,.364.063.217.217,0,0,1,.127.206.263.263,0,0,1-.079.19.379.379,0,0,1-.222.079l-.254-.063a.472.472,0,0,1-.206-.222,1.142,1.142,0,0,0-.38.3,1.465,1.465,0,0,0-.269.46,1.75,1.75,0,0,0-.1.586.987.987,0,0,0,.111.523.417.417,0,0,0,.349.19.5.5,0,0,0,.317-.1.8.8,0,0,0,.222-.238.736.736,0,0,0,.079-.333L20,46.1a.2.2,0,0,1,.079.174.545.545,0,0,1-.127.333.778.778,0,0,1-.333.254A1.3,1.3,0,0,1,19.179,46.936Z" transform="translate(-2.761 -43.402)"/><path d="M19.2,46.936a.649.649,0,0,1-.4-.111.779.779,0,0,1-.254-.333,1.26,1.26,0,0,1-.1-.507,1.6,1.6,0,0,1,.127-.618,1.566,1.566,0,0,1,.333-.507,1.5,1.5,0,0,1,.491-.333,1.517,1.517,0,0,1,.6-.127l.4.032.032.079.016.079a1.865,1.865,0,0,0-.681.111,1.216,1.216,0,0,0-.491.3,1.463,1.463,0,0,0-.3.444,1.658,1.658,0,0,0-.1.57.689.689,0,0,0,.127.46.379.379,0,0,0,.333.159.777.777,0,0,0,.666-.507,5.179,5.179,0,0,0,.4-1.537l.079-.063L20.6,44.5l.143.048.048.111L20.741,45l-.111.475-.111.571a4.111,4.111,0,0,0-.048.634l.048.174-.1.063-.111.016a.253.253,0,0,1-.19-.063.525.525,0,0,1-.063-.238l.016-.127.016-.143-.032-.016a1.159,1.159,0,0,1-.38.444A.876.876,0,0,1,19.2,46.936Z" transform="translate(-0.044 -43.402)"/><path d="M19.406,47.6a.632.632,0,0,1-.38-.111.779.779,0,0,1-.254-.333,1.26,1.26,0,0,1-.1-.507,1.359,1.359,0,0,1,.111-.57,1.288,1.288,0,0,1,.333-.475,1.457,1.457,0,0,1,.491-.317,1.578,1.578,0,0,1,.6-.127l.4.032.048.079v.079a2.074,2.074,0,0,0-.65.1,1.323,1.323,0,0,0-.491.269,1.161,1.161,0,0,0-.317.428,1.418,1.418,0,0,0-.111.539.79.79,0,0,0,.127.46.39.39,0,0,0,.349.159.657.657,0,0,0,.317-.1,1.136,1.136,0,0,0,.285-.269,1.82,1.82,0,0,0,.222-.428l-.048.539-.079-.032a1.276,1.276,0,0,1-.365.444A.929.929,0,0,1,19.406,47.6Zm1.078,0-.143-.063-.048-.19.016-.238.048-.412.079-.507.079-.539.1-.539.079-.444-.174-.174.206-.111.19-.032.143.048.048.158-.048.285-.111.475-.127.586c-.032.222-.079.444-.1.681a5.823,5.823,0,0,0-.048.729l.016.111.063.1-.111.063Z" transform="translate(3.193 -44.07)"/><path d="M19.846,46.936a.844.844,0,0,1-.491-.127.746.746,0,0,1-.333-.365,1.314,1.314,0,0,1-.127-.57,1.848,1.848,0,0,1,.111-.6,1.25,1.25,0,0,1,.285-.46,1.225,1.225,0,0,1,.444-.3,1.286,1.286,0,0,1,.555-.111h.174l.143.032.048.079.016.079a1.46,1.46,0,0,0-.729.159,1.106,1.106,0,0,0-.46.475,1.543,1.543,0,0,0-.158.681,1.109,1.109,0,0,0,.143.586.452.452,0,0,0,.4.222.854.854,0,0,0,.475-.159,1.125,1.125,0,0,0,.349-.412,2.3,2.3,0,0,0,.174-.634.743.743,0,0,1-.254-.238.547.547,0,0,1-.079-.285l.048-.159.1-.111.143-.047a.31.31,0,0,1,.269.174.879.879,0,0,1,.1.444,1.7,1.7,0,0,1-.111.65,1.629,1.629,0,0,1-.269.523,1.26,1.26,0,0,1-.428.349A.985.985,0,0,1,19.846,46.936Z" transform="translate(6.43 -43.402)"/><path d="M19.946,47.871a.632.632,0,0,1-.38-.111.779.779,0,0,1-.254-.333,1.26,1.26,0,0,1-.1-.507,1.587,1.587,0,0,1,.111-.618,1.566,1.566,0,0,1,.333-.507,1.682,1.682,0,0,1,.491-.333,1.578,1.578,0,0,1,.6-.127l.412.032.032.079.016.079a1.81,1.81,0,0,0-.681.111,1.118,1.118,0,0,0-.491.3,1.226,1.226,0,0,0-.3.444,1.658,1.658,0,0,0-.1.57.791.791,0,0,0,.111.46.408.408,0,0,0,.349.159.777.777,0,0,0,.666-.507,4.789,4.789,0,0,0,.38-1.537l.1-.063.1-.032.159.048.048.111-.048.349-.111.475a5.086,5.086,0,0,0-.127.571,4.111,4.111,0,0,0-.048.634l.063.174-.111.063-.1.016a.253.253,0,0,1-.19-.063.382.382,0,0,1-.063-.238v-.127l.032-.143-.048-.016a1.277,1.277,0,0,1-.365.444A.929.929,0,0,1,19.946,47.871Zm1.109-2.853-.158-.032-.238-.1-.285-.1-.333-.048-.016-.079-.016-.111c0-.159.063-.222.206-.222l.19.048.19.127.238.159.349.174-.048.143Z" transform="translate(11.211 -44.337)"/><path d="M20.378,46.936a3.383,3.383,0,0,1-.428-.032.761.761,0,0,1-.3-.143.271.271,0,0,1-.111-.206l.048-.143.127-.111a.8.8,0,0,0,.285.317.571.571,0,0,0,.349.111.91.91,0,0,0,.38-.063.466.466,0,0,0,.254-.158.439.439,0,0,0,.079-.254.226.226,0,0,0-.1-.19l-.254-.143-.333-.111-.333-.143a1.1,1.1,0,0,1-.254-.206.5.5,0,0,1-.1-.317.646.646,0,0,1,.079-.285.848.848,0,0,1,.238-.238,1.019,1.019,0,0,1,.38-.159,1.607,1.607,0,0,1,.491-.063,1.548,1.548,0,0,1,.507.079q.19.1.19.238a.274.274,0,0,1-.079.206.382.382,0,0,1-.238.063.334.334,0,0,1-.254-.1.512.512,0,0,1-.158-.269,1.352,1.352,0,0,0-.586.174.386.386,0,0,0-.19.317.219.219,0,0,0,.1.174l.254.127.317.127.333.143a.662.662,0,0,1,.254.206.457.457,0,0,1,.1.3.621.621,0,0,1-.063.285.628.628,0,0,1-.19.238.815.815,0,0,1-.333.158A1.345,1.345,0,0,1,20.378,46.936Z" transform="translate(15.977 -43.402)"/><path d="M20.383,46.936a.633.633,0,0,1-.491-.159.656.656,0,0,1-.158-.491l.032-.38.063-.412.079-.38.032-.333-.016-.158-.016-.127.127-.079.1-.016.158.063.063.19-.032.254-.063.333-.079.365-.063.349-.032.222a.6.6,0,0,0,.111.38.368.368,0,0,0,.317.127.671.671,0,0,0,.46-.174,1.242,1.242,0,0,0,.333-.523l-.048.6-.127-.063a.9.9,0,0,1-.206.222l-.269.143Zm1.014,0c-.079,0-.143-.016-.174-.079a.585.585,0,0,1-.048-.269l.032-.333.111-.586.206-.9-.143-.222.079-.063.143-.063.143-.016.158.048.048.158-.032.127-.063.3-.1.4-.1.444-.079.428-.016.38.048.174A.3.3,0,0,1,21.4,46.936Z" transform="translate(18.873 -43.402)"/><path d="M20.687,46.936a.6.6,0,0,1-.38-.111.809.809,0,0,1-.269-.333,1.259,1.259,0,0,1-.1-.507,1.6,1.6,0,0,1,.127-.618,1.566,1.566,0,0,1,.333-.507,1.5,1.5,0,0,1,.491-.333,1.517,1.517,0,0,1,.6-.127l.4.032.032.079.016.079a1.865,1.865,0,0,0-.681.111,1.215,1.215,0,0,0-.491.3,1.463,1.463,0,0,0-.3.444,1.658,1.658,0,0,0-.1.57.79.79,0,0,0,.127.46.39.39,0,0,0,.349.159c.254,0,.475-.174.65-.507a5.18,5.18,0,0,0,.4-1.537l.079-.063.111-.032.143.048.048.111L22.224,45l-.111.475L22,46.048a4.111,4.111,0,0,0-.048.634l.048.174-.1.063-.111.016a.2.2,0,0,1-.174-.063.389.389,0,0,1-.079-.238l.016-.127.032-.143-.048-.016a1.16,1.16,0,0,1-.38.444A.838.838,0,0,1,20.687,46.936Z" transform="translate(21.976 -43.402)"/><path d="M20.483,47.649l-.159-.063a.42.42,0,0,1-.048-.222l.032-.333.079-.6.127-.808.158-.9-.158-.174.19-.1.206-.048.127.048.048.158-.048.285-.1.475-.127.6c-.048.206-.079.444-.111.681a5.387,5.387,0,0,0-.048.713l.032.127.048.063-.111.079Zm.6-.808-.412-.032-.032-.079-.016-.079a1.988,1.988,0,0,0,.84-.158,1.393,1.393,0,0,0,.539-.46,1.288,1.288,0,0,0,.206-.7.809.809,0,0,0-.127-.475.428.428,0,0,0-.349-.159.524.524,0,0,0-.412.206,1.625,1.625,0,0,0-.333.6,6.763,6.763,0,0,0-.269.967l.127-1.569.174.174a1.464,1.464,0,0,1,.38-.507.837.837,0,0,1,.475-.174.648.648,0,0,1,.4.111.778.778,0,0,1,.254.333,1.314,1.314,0,0,1,.1.507,1.5,1.5,0,0,1-.127.586,1.615,1.615,0,0,1-.333.475,1.545,1.545,0,0,1-.491.317A1.433,1.433,0,0,1,21.085,46.841Z" transform="translate(26.95 -43.402)"/><path d="M21.446,46.936a.9.9,0,0,1-.507-.127.716.716,0,0,1-.317-.365,1.313,1.313,0,0,1-.127-.57,1.509,1.509,0,0,1,.111-.6,1.25,1.25,0,0,1,.285-.46,1.225,1.225,0,0,1,.444-.3,1.239,1.239,0,0,1,.555-.111h.174l.143.032.048.079.016.079a1.566,1.566,0,0,0-.745.159,1.164,1.164,0,0,0-.444.475,1.354,1.354,0,0,0-.158.681,1.109,1.109,0,0,0,.143.586.452.452,0,0,0,.4.222.854.854,0,0,0,.475-.159,1.125,1.125,0,0,0,.349-.412,2.3,2.3,0,0,0,.174-.634.743.743,0,0,1-.254-.238.547.547,0,0,1-.079-.285l.032-.159.111-.111.143-.047a.31.31,0,0,1,.269.174.878.878,0,0,1,.1.444,1.7,1.7,0,0,1-.111.65,1.391,1.391,0,0,1-.285.523,1.081,1.081,0,0,1-.412.349A.985.985,0,0,1,21.446,46.936Z" transform="translate(30.187 -43.402)"/><path d="M20.936,46.936l-.158-.063a.31.31,0,0,1-.063-.222l.032-.3.1-.475.111-.555.143-.555-.174-.174.19-.127.174-.047.143.063.048.143-.048.285-.143.349.048.032a3.1,3.1,0,0,1,.285-.523,1.178,1.178,0,0,1,.269-.285.582.582,0,0,1,.254-.079l.174.048.063.143a.226.226,0,0,1-.1.19.432.432,0,0,1-.254.063A.467.467,0,0,0,21.7,45a1.459,1.459,0,0,0-.3.412,3.362,3.362,0,0,0-.206.6,3.181,3.181,0,0,0-.079.666l.032.174A.3.3,0,0,1,20.936,46.936Z" transform="translate(33.439 -43.402)"/><path d="M21.023,45.421l-.127-.048-.032-.1v-.1l.063-.1.174.032h.19a1.8,1.8,0,0,0,.4-.048,3.332,3.332,0,0,1,.4-.032l.127.032.032.111v.079l-.063.1-.158-.032h-.19a1.8,1.8,0,0,0-.4.048A1.728,1.728,0,0,1,21.023,45.421Zm.19,1.886-.111-.016-.1-.1-.032-.19a1.914,1.914,0,0,1,.048-.4l.111-.46.111-.491.111-.444.048-.38-.016-.174-.032-.159.158-.1.174-.032.143.048.048.159-.048.317-.127.428-.158.539a5.209,5.209,0,0,0-.111.571,1.838,1.838,0,0,0-.048.586l.1.174-.143.1Z" transform="translate(35.681 -43.773)"/><path d="M21.739,46.936a.649.649,0,0,1-.4-.111.779.779,0,0,1-.254-.333,1.26,1.26,0,0,1-.1-.507,1.6,1.6,0,0,1,.127-.618,1.566,1.566,0,0,1,.333-.507,1.348,1.348,0,0,1,.491-.333,1.46,1.46,0,0,1,.6-.127l.4.032.032.079.016.079a1.865,1.865,0,0,0-.681.111,1.32,1.32,0,0,0-.792.745,1.658,1.658,0,0,0-.1.57.791.791,0,0,0,.111.46.428.428,0,0,0,.349.159.777.777,0,0,0,.666-.507,5.18,5.18,0,0,0,.4-1.537l.079-.063.111-.032.143.048.048.111L23.276,45l-.111.475-.127.571a4.115,4.115,0,0,0-.048.634l.063.174-.1.063-.111.016a.253.253,0,0,1-.19-.063.525.525,0,0,1-.063-.238l.016-.127.016-.143-.032-.016a1.313,1.313,0,0,1-.38.444A.876.876,0,0,1,21.739,46.936Z" transform="translate(37.596 -43.402)"/></g><g transform="translate(17.851)"><path d="M23.653,57.348a5.177,5.177,0,0,1-3.883-1.442,5.455,5.455,0,0,1-1.41-4.01,9.259,9.259,0,0,1,.618-3.423,8.482,8.482,0,0,1,1.759-2.742,7.928,7.928,0,0,1,2.583-1.807,7.628,7.628,0,0,1,3.17-.666,4.418,4.418,0,0,1,2.235.475A1.39,1.39,0,0,1,29.549,45a1.489,1.489,0,0,1-.523,1.141,1.956,1.956,0,0,1-1.315.46,3.217,3.217,0,0,1-1.474-.365A2.736,2.736,0,0,1,25.1,44.971a5.847,5.847,0,0,0-2.029,1.537,7.92,7.92,0,0,0-1.426,2.441,8.846,8.846,0,0,0-.523,3.09,5.079,5.079,0,0,0,.666,2.789,2.115,2.115,0,0,0,1.838,1.014,2.973,2.973,0,0,0,1.712-.491,3.59,3.59,0,0,0,1.173-1.3,4.252,4.252,0,0,0,.475-1.823,2.386,2.386,0,0,1,1.347.333,1.188,1.188,0,0,1,.475,1.046,2.831,2.831,0,0,1-.7,1.87,4.776,4.776,0,0,1-1.87,1.363A6.531,6.531,0,0,1,23.653,57.348Z" transform="translate(-18.36 -38.378)" fill="#2b8e30"/><path d="M20.671,61.921a1.55,1.55,0,0,1-1.141-.38,1.616,1.616,0,0,1-.4-1.22,11.634,11.634,0,0,1,.111-1.236c.063-.523.174-1.189.317-2.013.158-.808.365-1.807.6-2.979.254-1.173.555-2.567.919-4.184l-1-1.125a4.2,4.2,0,0,1,1.284-.7,3.994,3.994,0,0,1,1.268-.254,1.448,1.448,0,0,1,.951.269,1.348,1.348,0,0,1,.285.983,5.177,5.177,0,0,1-.143.777l-.38,1.569c-.158.634-.333,1.347-.507,2.092-.174.761-.333,1.537-.491,2.346q-.238,1.189-.38,2.282a15.279,15.279,0,0,0-.143,1.965,2.466,2.466,0,0,0,.1.729,1.222,1.222,0,0,0,.3.475A2.461,2.461,0,0,1,20.671,61.921ZM22.684,45.93a1.744,1.744,0,0,1-1.157-.365,1.165,1.165,0,0,1-.428-.935,1.441,1.441,0,0,1,.254-.824,1.774,1.774,0,0,1,.7-.618,2.234,2.234,0,0,1,1.062-.238,1.739,1.739,0,0,1,1.157.349,1.16,1.16,0,0,1,.412.9,1.518,1.518,0,0,1-.254.872,1.693,1.693,0,0,1-.713.618A2.194,2.194,0,0,1,22.684,45.93Z" transform="translate(-6.868 -42.951)" fill="#2b8e30"/><path d="M20.619,48.984a1.222,1.222,0,0,1-.824-.222.9.9,0,0,1-.238-.666,1.615,1.615,0,0,1,.079-.523A1.861,1.861,0,0,1,19.906,47a6.3,6.3,0,0,0,1,.158c.412.016.761.032,1.062.032a11.394,11.394,0,0,0,2.282-.238,10.6,10.6,0,0,1,2.33-.254,1.088,1.088,0,0,1,.824.238.963.963,0,0,1,.222.666,2.211,2.211,0,0,1-.079.507,1.851,1.851,0,0,1-.285.555,4.2,4.2,0,0,0-.951-.159c-.38-.032-.729-.048-1.03-.048A10.386,10.386,0,0,0,23,48.714,11.043,11.043,0,0,1,20.619,48.984ZM21.76,59.412a1.891,1.891,0,0,1-.745-.143,1.144,1.144,0,0,1-.555-.57,2.7,2.7,0,0,1-.206-1.2,12.157,12.157,0,0,1,.206-2.155c.143-.808.333-1.632.539-2.488l.666-2.536c.206-.84.4-1.632.539-2.377A10.451,10.451,0,0,0,22.41,46a5.3,5.3,0,0,0-.079-1c-.048-.349-.111-.681-.19-1.014a2.707,2.707,0,0,1,1.014-.634,3.554,3.554,0,0,1,1.236-.238,1.246,1.246,0,0,1,.951.3,1.328,1.328,0,0,1,.3.967,7.13,7.13,0,0,1-.269,1.648c-.19.681-.412,1.458-.681,2.33-.269.856-.539,1.791-.808,2.773a31.051,31.051,0,0,0-.681,3.075,19.6,19.6,0,0,0-.269,3.17l.729,1.22a2.672,2.672,0,0,1-.935.618A2.822,2.822,0,0,1,21.76,59.412Z" transform="translate(-0.587 -40.442)" fill="#2b8e30"/><path d="M24.087,57.348a3.672,3.672,0,0,1-2.139-.65,4.385,4.385,0,0,1-1.442-1.854A6.9,6.9,0,0,1,20,52.055a8.769,8.769,0,0,1,2.488-6.26,8.5,8.5,0,0,1,2.758-1.87,8.652,8.652,0,0,1,3.407-.666,12.118,12.118,0,0,1,2.108.19,1.7,1.7,0,0,1,.206.491,2.172,2.172,0,0,1,.063.571,9.938,9.938,0,0,0-3.487.555,7.392,7.392,0,0,0-2.6,1.585,6.936,6.936,0,0,0-1.632,2.377,7.83,7.83,0,0,0-.555,2.964,4,4,0,0,0,.634,2.377,2.1,2.1,0,0,0,1.791.856c1.395,0,2.536-.887,3.439-2.678a25.631,25.631,0,0,0,2.029-8.035A1.607,1.607,0,0,1,31.3,44a1.985,1.985,0,0,1,.792-.174,1.375,1.375,0,0,1,.887.254.909.909,0,0,1,.333.761,8.9,8.9,0,0,1-.269,1.886l-.618,2.552c-.222.951-.428,1.949-.6,3.027a19.924,19.924,0,0,0-.269,3.233,1.55,1.55,0,0,0,.412,1.173,2.519,2.519,0,0,1-.745.491,2.307,2.307,0,0,1-.777.143,1.461,1.461,0,0,1-1.173-.475,2.074,2.074,0,0,1-.4-1.379,4.788,4.788,0,0,1,.048-.634c.032-.238.063-.476.111-.713l-.222-.111a6.841,6.841,0,0,1-2.044,2.441A4.506,4.506,0,0,1,24.087,57.348Z" transform="translate(5.961 -38.378)" fill="#2b8e30"/><path d="M22.48,57.348a1.55,1.55,0,0,1-1.141-.38,1.68,1.68,0,0,1-.38-1.22,11.108,11.108,0,0,1,.158-1.569c.1-.729.254-1.569.428-2.536.19-.951.412-1.965.634-3.027.238-1.062.475-2.092.729-3.09l-1.014-1.141a4.642,4.642,0,0,1,1.3-.777,3.966,3.966,0,0,1,1.3-.269,1.314,1.314,0,0,1,.951.269,1.355,1.355,0,0,1,.269.967,5.365,5.365,0,0,1-.19,1.315,7.486,7.486,0,0,1-.507,1.379l.222.127a9.222,9.222,0,0,1,2.6-3.075,5.6,5.6,0,0,1,3.3-1.062A2.92,2.92,0,0,1,33.32,44a3.162,3.162,0,0,1,.7,2.25,10.457,10.457,0,0,1-.238,2.171c-.143.745-.333,1.521-.539,2.314-.222.808-.4,1.6-.555,2.409a12.374,12.374,0,0,0-.238,2.393,1.9,1.9,0,0,0,.285,1.173,2.028,2.028,0,0,1-1.442.634,1.485,1.485,0,0,1-1.125-.38,1.68,1.68,0,0,1-.38-1.22,12.08,12.08,0,0,1,.222-2.108c.143-.792.3-1.585.491-2.409s.349-1.6.491-2.33a10.318,10.318,0,0,0,.222-1.9,2.3,2.3,0,0,0-.349-1.363,1.247,1.247,0,0,0-1.03-.46,3.525,3.525,0,0,0-1.9.586,6.98,6.98,0,0,0-1.7,1.6,11.539,11.539,0,0,0-1.363,2.346,15.017,15.017,0,0,0-1.236,5.832,1.961,1.961,0,0,0,.269,1.173A2.021,2.021,0,0,1,22.48,57.348Z" transform="translate(20.23 -38.378)" fill="#2b8e30"/><path d="M25.958,61.03a3.672,3.672,0,0,1-2.139-.65,4.385,4.385,0,0,1-1.442-1.854,6.9,6.9,0,0,1-.523-2.789,7.869,7.869,0,0,1,.666-3.233,8.225,8.225,0,0,1,1.838-2.615A8.35,8.35,0,0,1,27.1,48.146a8.986,8.986,0,0,1,3.407-.634,11.848,11.848,0,0,1,2.124.174,2.683,2.683,0,0,1,.206.491,3.139,3.139,0,0,1,.063.57,10.974,10.974,0,0,0-3.439.507,7.751,7.751,0,0,0-2.6,1.426A6.19,6.19,0,0,0,25.2,52.868a6.724,6.724,0,0,0-.57,2.805,3.887,3.887,0,0,0,.634,2.377,2.069,2.069,0,0,0,1.775.856,3.263,3.263,0,0,0,1.632-.475,5.673,5.673,0,0,0,1.506-1.41,8.378,8.378,0,0,0,1.141-2.187l-.19,3.059-.46-.174a6.535,6.535,0,0,1-2.044,2.441A4.426,4.426,0,0,1,25.958,61.03Zm6.26,0a1.3,1.3,0,0,1-1.062-.444,2.058,2.058,0,0,1-.349-1.331c0-.269.032-.713.1-1.315s.158-1.315.285-2.139c.111-.824.254-1.712.4-2.662.158-.967.317-1.918.475-2.884s.3-1.9.46-2.789l.428-2.361-1-1.125a4.606,4.606,0,0,1,1.284-.713,3.844,3.844,0,0,1,1.315-.254,1.234,1.234,0,0,1,.9.269,1.41,1.41,0,0,1,.269.967,8.294,8.294,0,0,1-.238,1.632c-.143.713-.333,1.553-.555,2.536-.222.967-.46,2.044-.7,3.2q-.333,1.735-.571,3.613a33.578,33.578,0,0,0-.222,3.8,2.571,2.571,0,0,0,.127.777,1.186,1.186,0,0,0,.349.586,2.328,2.328,0,0,1-.761.46A2.19,2.19,0,0,1,32.218,61.03Z" transform="translate(33.504 -42.06)" fill="#2b8e30"/><path d="M26.879,57.348a3.672,3.672,0,0,1-2.139-.65A4.385,4.385,0,0,1,23.3,54.844a6.9,6.9,0,0,1-.523-2.789A8.776,8.776,0,0,1,23.44,48.6a9.062,9.062,0,0,1,1.838-2.805,8.5,8.5,0,0,1,2.758-1.87,8.63,8.63,0,0,1,3.391-.666,12.16,12.16,0,0,1,2.124.19,1.7,1.7,0,0,1,.206.491,2.172,2.172,0,0,1,.063.571,9.938,9.938,0,0,0-3.487.555,7.392,7.392,0,0,0-2.6,1.585A6.937,6.937,0,0,0,26.1,49.028a7.831,7.831,0,0,0-.555,2.964,4,4,0,0,0,.634,2.377,2.089,2.089,0,0,0,1.775.856c1.41,0,2.552-.887,3.455-2.678a25.633,25.633,0,0,0,2.029-8.035A1.607,1.607,0,0,1,34.09,44a1.985,1.985,0,0,1,.792-.174,1.375,1.375,0,0,1,.888.254.909.909,0,0,1,.333.761,8.9,8.9,0,0,1-.269,1.886l-.618,2.552c-.222.951-.428,1.949-.6,3.027a19.927,19.927,0,0,0-.269,3.233,1.545,1.545,0,0,0,.4,1.173,2.275,2.275,0,0,1-.729.491,2.307,2.307,0,0,1-.777.143,1.461,1.461,0,0,1-1.173-.475,2.074,2.074,0,0,1-.4-1.379,4.793,4.793,0,0,1,.048-.634,5.552,5.552,0,0,1,.111-.713l-.238-.111a6.651,6.651,0,0,1-2.029,2.441A4.507,4.507,0,0,1,26.879,57.348Z" transform="translate(47.179 -38.378)" fill="#2b8e30"/></g></svg>