<?xml version="1.0" encoding="utf-8"?>

<svg version="1.1" id="Layer_1" xmlns="http://www.w3.org/2000/svg" xmlns:xlink="http://www.w3.org/1999/xlink" x="0px" y="0px"
	 width="512px" height="150.5px" viewBox="0 0 512 150.5" enable-background="new 0 0 512 150.5" xml:space="preserve">
<rect y="-179.9" display="none" width="512" height="512"/>
<g>
	<g id="W_1_">
		<polygon fill="#E6E6E6" points="110.1,41.1 5,146.2 215.2,146.2 		"/>
		<polygon fill="#FFFFFF" points="5,6 5,146.2 110.1,146.2 		"/>
		<polygon fill="#FFFFFF" points="215.2,6 215.2,146.2 110.1,146.2 		"/>
	</g>
	<g id="A_1_">
		<polygon fill="#E6E6E6" points="384.4,146.2 308.5,100.6 269.9,77.4 308.5,6 347.2,77.4 		"/>
		<polygon fill="#FFFFFF" points="347.2,77.4 308.5,100.6 232.7,146.2 269.9,77.4 308.5,6 		"/>
	</g>
	<g id="B_1_">
		<polygon fill="#FFFFFF" points="472,6 401.9,6 401.9,76.1 		"/>
		<polygon fill="#E6E6E6" points="472,146.2 401.9,146.2 401.9,76.1 		"/>
		
			<rect x="447.2" y="16.3" transform="matrix(0.7071 -0.7071 0.7071 0.7071 109.1941 345.7619)" fill="#E6E6E6" width="49.5" height="49.5"/>
		
			<rect x="447.2" y="86.4" transform="matrix(0.7071 -0.7071 0.7071 0.7071 59.6522 366.2829)" fill="#FFFFFF" width="49.5" height="49.5"/>
	</g>
</g>
</svg>
